<svg xmlns="http://www.w3.org/2000/svg" version="1.1" width="64px" height="64px" style="shape-rendering:geometricPrecision; text-rendering:geometricPrecision; image-rendering:optimizeQuality; fill-rule:evenodd; clip-rule:evenodd" xmlns:xlink="http://www.w3.org/1999/xlink">
<g><path style="opacity:1" fill="#FFFFFF" d="M 4.5,-0.5 C 15.1667,-0.5 25.8333,-0.5 36.5,-0.5C 61.3963,9.34562 67.8963,26.3456 56,50.5C 50.2583,56.7748 43.425,61.1081 35.5,63.5C 31.5,63.5 27.5,63.5 23.5,63.5C 18.7658,61.2607 15.5992,57.594 14,52.5C 13.5002,42.172 13.3335,31.8387 13.5,21.5C 11.5328,21.2606 9.69946,21.5939 8,22.5C 7.33333,32.8333 7.33333,43.1667 8,53.5C 9.23873,57.5464 11.4054,60.8797 14.5,63.5C 12.1667,63.5 9.83333,63.5 7.5,63.5C 4.59622,61.9449 1.92955,59.9449 -0.5,57.5C -0.5,44.8333 -0.5,32.1667 -0.5,19.5C 4.42362,13.3542 10.9236,11.0208 19,12.5C 28.6702,11.2911 37.0035,13.9578 44,20.5C 50.7751,33.7834 47.2751,43.2834 33.5,49C 29.8484,49.4986 26.1817,49.6653 22.5,49.5C 22.2965,51.3904 22.9632,52.8904 24.5,54C 41.4414,56.1699 51.1081,48.6699 53.5,31.5C 52.5558,19.3823 46.2225,11.5489 34.5,8C 24.8333,7.33333 15.1667,7.33333 5.5,8C 3.5952,9.42132 1.5952,10.588 -0.5,11.5C -0.5,9.16667 -0.5,6.83333 -0.5,4.5C 1.5,3.16667 3.16667,1.5 4.5,-0.5 Z M 22.5,21.5 C 33.9881,19.4956 39.1548,24.1623 38,35.5C 34.275,40.8845 29.1084,42.8845 22.5,41.5C 22.5,34.8333 22.5,28.1667 22.5,21.5 Z"/></g>
</svg>
