<?xml version="1.0" standalone="no"?>
<!DOCTYPE svg PUBLIC "-//W3C//DTD SVG 20010904//EN"
 "http://www.w3.org/TR/2001/REC-SVG-20010904/DTD/svg10.dtd">
<svg version="1.0" xmlns="http://www.w3.org/2000/svg"
 width="300.000000pt" height="272.000000pt" viewBox="0 0 300.000000 272.000000"
 preserveAspectRatio="xMidYMid meet">
<g transform="translate(0.000000,272.000000) scale(0.050000,-0.050000)"
fill="#fff" stroke="none">
<path d="M3735 4909 c-6 -7 -120 -13 -253 -13 -133 -1 -242 -10 -242 -19 0
-10 -34 -15 -75 -13 -87 5 -173 -22 -400 -126 -91 -42 -172 -78 -180 -79 -8
-2 -13 -11 -10 -21 3 -10 -5 -18 -17 -18 -26 0 -149 -100 -125 -101 10 0 -10
-16 -43 -34 -33 -18 -67 -31 -76 -29 -10 3 -12 -2 -7 -11 6 -9 -29 -61 -78
-116 -48 -54 -88 -105 -88 -113 -1 -7 -13 -25 -27 -40 -14 -14 -57 -89 -95
-166 -38 -77 -76 -143 -84 -147 -8 -3 -11 -13 -6 -21 5 -8 -4 -71 -20 -139
-16 -68 -38 -205 -49 -305 -16 -143 -36 -211 -90 -316 -60 -114 -90 -256 -49
-232 15 10 79 -63 67 -76 -6 -5 41 -9 102 -9 61 0 107 5 101 11 -16 16 54 63
95 63 20 1 32 9 26 18 -16 26 145 174 166 152 18 -18 31 -97 23 -139 -2 -11
-3 -77 -1 -146 2 -73 -7 -139 -21 -155 -13 -16 -17 -29 -9 -29 8 0 4 -13 -10
-30 -14 -16 -18 -30 -10 -30 8 0 3 -15 -13 -34 -16 -20 -17 -28 -3 -19 37 22
-28 -153 -76 -204 -22 -24 -53 -43 -70 -43 -16 0 -67 -19 -114 -43 -46 -24
-86 -41 -89 -39 -22 15 -313 -166 -406 -252 -62 -58 -121 -99 -129 -91 -9 8
-11 5 -4 -7 7 -12 -4 -39 -23 -61 -41 -44 -95 -182 -112 -290 -7 -40 -37 -98
-66 -128 -30 -31 -44 -49 -30 -41 14 8 25 5 25 -7 0 -11 -8 -21 -18 -21 -10 0
-24 -25 -31 -55 -8 -30 -13 -55 -11 -55 1 0 -11 -27 -28 -59 -17 -33 -23 -64
-12 -71 10 -6 11 -42 1 -86 -11 -47 -10 -74 3 -74 11 0 15 -13 9 -29 -6 -17
-2 -35 9 -42 12 -7 16 -26 10 -42 -7 -16 -3 -24 7 -18 17 11 53 -63 45 -94 -2
-8 3 -13 11 -10 24 7 106 -57 92 -72 -8 -7 -6 -13 3 -13 35 0 130 123 130 169
0 26 10 74 23 105 13 31 26 68 28 82 9 43 68 124 91 124 11 0 15 8 9 19 -10
16 76 121 100 121 5 0 47 27 92 60 46 33 93 60 106 60 13 0 43 18 67 41 24 22
44 36 44 31 0 -6 31 3 69 19 39 16 93 29 122 29 29 0 46 9 39 20 -11 17 48 31
97 22 10 -2 28 5 40 15 38 29 290 69 473 74 93 3 170 7 170 9 0 13 134 10 143
-4 6 -10 21 -10 34 0 13 10 91 16 173 15 83 -1 161 6 175 16 14 10 32 13 39 6
7 -7 25 5 41 27 15 23 38 35 49 27 13 -8 16 -4 8 10 -9 14 -1 23 18 23 18 0
27 8 21 18 -6 9 7 22 29 28 22 6 40 4 40 -3 0 -7 29 -14 65 -15 36 -1 86 -8
113 -14 26 -7 42 -7 35 0 -7 7 7 22 32 35 24 12 63 55 86 97 23 41 50 67 60
59 10 -8 6 0 -8 18 -14 18 -17 38 -7 44 9 6 13 56 9 110 -8 99 34 223 75 223
20 0 115 300 118 370 11 317 -1 694 -26 765 -16 45 -24 87 -17 93 6 7 0 12
-14 12 -91 0 71 316 164 319 8 1 15 11 15 23 0 12 23 49 50 82 28 33 45 68 39
78 -6 10 3 18 20 18 17 0 31 13 31 29 0 16 18 41 40 57 22 15 35 32 30 38 -6
5 12 34 40 64 27 30 50 67 50 83 0 16 8 29 17 29 16 0 20 16 25 105 3 61 -36
155 -64 155 -12 0 -40 23 -62 50 -21 28 -48 50 -59 50 -36 0 -317 145 -317
164 0 10 -9 13 -19 7 -11 -7 -49 0 -86 16 -36 15 -111 27 -165 27 -56 0 -101
10 -106 23 -4 13 -16 18 -27 11 -11 -6 -35 2 -55 20 -19 18 -40 27 -47 21z
m-187 -283 c24 -57 51 -111 61 -120 15 -15 12 12 -22 174 l-12 61 117 -13
c143 -16 121 6 174 -181 l44 -157 6 145 c4 97 14 145 30 145 33 0 244 -67 349
-110 l85 -34 -82 -149 c-105 -191 -90 -203 45 -40 121 147 122 148 214 92 l67
-41 -49 -64 c-27 -35 -132 -183 -233 -329 -102 -146 -189 -265 -193 -265 -4 0
-30 21 -58 47 -345 320 -1036 333 -1451 28 -107 -79 -108 -79 -50 -15 134 147
374 267 598 300 l102 15 -121 3 c-423 8 -762 -269 -975 -797 -106 -265 -217
-397 -364 -433 -60 -14 -60 -14 32 84 108 117 151 226 166 419 25 313 181 742
249 683 68 -58 87 -58 43 2 l-45 61 86 101 c99 119 99 119 194 47 74 -56 73
-33 -3 52 l-42 47 66 56 c37 30 98 72 137 93 l70 37 80 -86 c98 -105 115 -99
48 18 -67 117 -70 111 84 158 74 23 150 46 169 52 30 9 33 -5 22 -131 -15
-176 -1 -178 55 -6 58 178 48 168 163 161 100 -6 100 -6 144 -110z m23 -699
c204 -68 352 -198 456 -400 39 -78 24 -87 -144 -87 -141 -1 -105 -31 60 -50
147 -17 151 -23 172 -260 23 -255 -30 -892 -74 -889 -50 3 -121 166 -92 210
22 34 30 92 28 203 -2 86 -7 129 -11 96 -4 -33 -12 -73 -18 -90 -10 -29 -131
163 -273 435 -83 159 -88 157 -74 -30 14 -184 62 -288 199 -434 l96 -101 7
-405 c5 -223 3 -405 -4 -405 -6 0 -53 48 -104 107 -51 59 -144 141 -206 183
-139 92 -194 146 -406 395 -227 266 -227 244 -1 -115 41 -65 74 -121 72 -122
-2 -2 -76 10 -164 26 -156 28 -524 25 -685 -6 l-65 -13 29 68 c70 169 116 407
110 577 -10 317 -3 450 30 540 64 172 64 176 12 130 -50 -45 -212 -255 -226
-295 -5 -14 -16 -19 -25 -11 -69 65 300 559 490 656 244 124 590 161 811 87z
m-432 -1881 c221 -44 650 -224 616 -258 -4 -4 -97 16 -206 44 -703 181 -1717
12 -2117 -353 -125 -115 -139 -109 -55 22 294 460 1037 690 1762 545z m-27
-296 c197 -37 428 -110 428 -134 0 -10 -16 -14 -35 -8 -163 50 -629 55 -975 9
-822 -107 -1410 -564 -1270 -986 33 -100 10 -113 -32 -18 -217 491 301 1019
1132 1153 133 22 609 12 752 -16z"/>
<path d="M3664 2585 l113 -115 19 -190 18 -190 3 202 3 202 -118 103 c-158
137 -178 131 -38 -12z"/>
</g>
</svg>
