<svg xmlns="http://www.w3.org/2000/svg" width="1024" height="1024" viewBox="0 0 1024 1024" version="1.1">
	<path d="M 882.668 213.582 C 870.624 219.912, 851.218 244.313, 830.725 278.897 C 825.913 287.018, 806.841 324.619, 803.663 332.250 C 802.805 334.313, 801.687 336, 801.181 336 C 798.575 336, 774.654 340.535, 761.471 343.528 C 730.940 350.459, 687.713 363.862, 659.748 375.069 C 644.065 381.353, 630.479 387.812, 631.274 388.607 C 631.537 388.870, 635.070 388.178, 639.126 387.069 C 645.757 385.255, 656.570 382.624, 713 369.094 C 722.075 366.918, 736.250 363.776, 744.500 362.112 C 766.626 357.649, 788.184 353.121, 790.773 352.394 L 793.045 351.755 790.412 359.054 C 787.033 368.424, 773.572 399.704, 767.629 412 C 763.353 420.846, 761.900 422.669, 746.537 438.469 C 736.695 448.590, 729.700 455.046, 729.201 454.469 C 726.818 451.707, 721.578 437.909, 721.244 433.514 C 720.897 428.966, 721.344 427.663, 726.044 419.500 C 732.047 409.076, 736.194 403.696, 744.230 395.908 C 750.865 389.477, 751.613 386.414, 747.365 383.073 C 742.031 378.877, 735.052 380.994, 727.457 389.110 C 717.898 399.327, 706.009 418.555, 704.159 426.790 C 703.615 429.208, 703.645 432.981, 704.234 436.401 C 705.193 441.967, 705.165 442.075, 701.777 445.826 C 699.891 447.912, 695.908 454.233, 692.924 459.871 C 689.941 465.509, 685.733 472.457, 683.573 475.311 C 681.413 478.165, 676.769 485.450, 673.252 491.500 C 669.736 497.550, 666.290 502.950, 665.595 503.500 C 664.900 504.050, 664.026 505.727, 663.652 507.228 C 663.065 509.585, 663.326 510.044, 665.573 510.608 C 667.778 511.161, 669.004 510.441, 673.628 505.880 C 676.628 502.921, 680.198 498.148, 681.560 495.272 C 682.923 492.397, 685.312 488.122, 686.869 485.772 C 690.602 480.140, 696.342 469.326, 697.765 465.246 C 699.646 459.849, 709.321 445.921, 710.423 447.023 C 710.960 447.560, 712.149 448, 713.065 448 C 714.297 448, 715.170 449.814, 716.425 454.976 C 718.524 463.610, 718.539 464.527, 716.668 469.532 C 713.118 479.027, 692.181 510.960, 686.208 515.988 C 684.169 517.706, 681.487 519.952, 680.250 520.980 C 677.392 523.354, 677.421 524.512, 680.414 527.505 C 688.024 535.114, 699.459 529.632, 710.670 513 C 713.080 509.425, 718.409 501.550, 722.512 495.500 C 730.705 483.420, 733 478.047, 733 470.947 C 733 462.635, 733.906 460.404, 738.918 456.366 C 741.501 454.284, 746.739 448.643, 750.558 443.829 C 754.376 439.016, 757.795 435.060, 758.155 435.039 C 759.053 434.986, 756.686 443.920, 751.543 460 C 741.713 490.732, 735.274 533.837, 737.851 551.659 C 738.541 556.426, 739.590 561.234, 740.184 562.344 C 741.191 564.225, 741.347 564.245, 742.519 562.643 C 743.210 561.698, 744.089 557.993, 744.473 554.408 C 744.857 550.824, 745.599 546.453, 746.122 544.696 C 746.644 542.938, 748.609 534.870, 750.488 526.768 C 756.476 500.939, 767.764 466.473, 782.510 429 C 793.110 402.061, 798.681 389.389, 812.835 360.018 L 818.850 347.536 837.175 345.852 C 847.254 344.925, 863.375 343.377, 873 342.412 C 885.231 341.186, 899.382 340.649, 920 340.628 C 946.163 340.603, 950.771 340.844, 960.739 342.759 C 966.920 343.946, 972.931 345.428, 974.096 346.051 C 976.990 347.600, 978.893 345.787, 976.908 343.374 C 974.909 340.944, 964.721 336.568, 956.500 334.607 C 935.894 329.692, 891.704 327.743, 851.033 329.955 C 838.300 330.648, 827.683 331.016, 827.441 330.774 C 826.774 330.108, 844.366 297.575, 857.060 276 C 858.839 272.975, 862.177 267.125, 864.478 263 C 870.392 252.393, 878.539 239.360, 882.919 233.500 C 892.342 220.893, 894.217 217.814, 894.356 214.722 C 894.490 211.719, 894.263 211.484, 891 211.271 C 888.818 211.129, 885.680 211.999, 882.668 213.582 M 686 216.897 C 680.066 218.827, 671.895 223.384, 665.500 228.329 C 642.928 245.782, 613.967 280.920, 596.538 312 C 593.916 316.675, 589.597 323.925, 586.940 328.110 C 579.931 339.149, 565.794 366.845, 561.033 378.860 C 558.775 384.558, 556.035 390.971, 554.944 393.110 C 551.176 400.496, 542.915 425.515, 542.708 430.169 C 542.545 433.818, 542.991 435.361, 544.750 437.233 C 545.987 438.551, 547 440.152, 547 440.791 C 547 442.510, 532.113 457.802, 527.635 460.684 C 524.843 462.480, 524.073 463.473, 524.861 464.261 C 525.650 465.050, 526.545 464.818, 528.087 463.426 L 530.221 461.500 528.220 465 C 527.120 466.925, 525.680 470.300, 525.020 472.500 C 524.360 474.700, 519.361 490.093, 513.910 506.707 C 508.460 523.321, 504 537.421, 504 538.041 C 504 538.661, 501.433 545.717, 498.295 553.721 C 491.907 570.014, 491.915 570.006, 480.162 572.118 C 477.048 572.678, 471.575 574.057, 468 575.183 C 464.425 576.310, 455.425 578.935, 448 581.017 C 440.575 583.100, 431.125 585.928, 427 587.301 C 412.694 592.066, 387.449 599.791, 377.500 602.449 C 372 603.919, 357.035 608.508, 344.245 612.647 C 273.673 635.487, 195.814 674.498, 155.500 707.217 C 138.504 721.011, 132.660 727.161, 127.957 736.199 C 123.378 745.001, 123.174 747.243, 127.523 740.967 C 132.420 733.901, 141.615 726.316, 159.831 714.315 C 177.988 702.354, 189.624 695.272, 201 689.258 C 204.575 687.368, 213.575 682.522, 221 678.488 C 240.474 667.909, 269.812 654.399, 290.500 646.484 C 297.100 643.959, 307 640.140, 312.500 637.997 C 318 635.854, 326.676 632.477, 331.781 630.493 C 339.224 627.599, 349.152 625.044, 353.097 625.006 C 353.425 625.003, 354.728 624.103, 355.992 623.007 C 359.601 619.877, 395.634 608.988, 403.655 608.603 C 404.839 608.546, 405.653 608.248, 405.462 607.939 C 404.930 607.078, 451.457 592.773, 476.829 585.996 L 487.157 583.238 486.526 585.869 C 486.178 587.316, 483.641 594.350, 480.888 601.500 L 475.881 614.500 460.191 618.353 C 451.561 620.473, 437.975 624.360, 430 626.991 C 422.025 629.623, 412.350 632.763, 408.500 633.969 C 396.517 637.724, 360.375 650.480, 340.526 657.959 C 305.831 671.034, 259.563 692.037, 237 704.955 C 233.425 707.001, 222.400 713.090, 212.500 718.484 C 169.793 741.754, 132.374 766.965, 102 792.932 C 81.074 810.822, 55.541 836.874, 57.254 838.587 C 57.549 838.882, 59.486 837.633, 61.559 835.812 C 63.631 833.990, 67.679 830.700, 70.553 828.500 C 73.426 826.300, 81.115 820.196, 87.639 814.935 C 124.807 784.962, 161.411 761.483, 208.392 737.479 C 256.287 713.009, 283.898 700.883, 343.719 678.046 C 350.989 675.271, 357.213 673, 357.551 673 C 357.888 673, 365.440 670.357, 374.332 667.126 C 392.061 660.685, 429.822 648.590, 453.828 641.662 C 468.516 637.424, 469.136 637.328, 468.649 639.369 C 468.370 640.541, 467.421 646.450, 466.542 652.500 C 465.662 658.550, 464.070 667.550, 463.004 672.500 C 454.845 710.396, 453.437 721.420, 457.842 712.921 C 458.817 711.040, 460.439 705.900, 461.446 701.500 C 462.452 697.100, 465.174 688.550, 467.495 682.500 C 469.816 676.450, 474.731 662.683, 478.419 651.907 L 485.124 632.315 499.312 629.052 C 507.115 627.257, 527.450 622.506, 544.500 618.495 C 561.550 614.484, 579.550 610.435, 584.500 609.496 C 589.450 608.558, 598 606.760, 603.500 605.501 C 609 604.241, 617.325 602.678, 622 602.026 C 626.675 601.375, 636.058 599.743, 642.851 598.398 C 649.644 597.053, 662.244 594.819, 670.851 593.433 C 679.458 592.047, 689.072 590.250, 692.215 589.438 C 695.359 588.627, 705.034 586.870, 713.715 585.535 C 733.835 582.439, 777.705 575.138, 816.124 568.493 C 835.358 565.165, 866.549 558.476, 879.404 554.921 C 902.087 548.648, 927.107 537.538, 941.268 527.451 C 959.945 514.146, 967.127 495.448, 959.685 479.500 C 954.895 469.235, 944.440 461.125, 934 459.576 C 929.956 458.976, 929.684 459.056, 931.314 460.361 C 932.311 461.160, 936.342 463.093, 940.272 464.657 C 948.543 467.948, 954.471 473.210, 957.910 480.314 C 962.663 490.132, 959.374 504.568, 950.149 514.381 C 940.785 524.341, 918.969 537.312, 902 543.007 C 883.482 549.223, 873.227 552.033, 863.853 553.460 C 830.055 558.605, 804.672 561.447, 761 564.973 C 719.277 568.342, 677.620 573.409, 653.500 578.047 C 648 579.105, 636.670 580.880, 628.322 581.992 C 619.974 583.105, 608.724 584.891, 603.322 585.962 C 597.920 587.033, 587.875 588.857, 581 590.016 C 574.125 591.174, 560.400 593.933, 550.500 596.147 C 530.326 600.659, 499.423 607.829, 496.749 608.618 C 494.631 609.244, 494.807 608.714, 501.358 594.727 C 503.876 589.351, 506.403 583.276, 506.974 581.227 C 508.567 575.510, 510.783 573.521, 520 569.536 C 533.004 563.915, 541.139 559.256, 557.500 548.060 C 576.398 535.128, 582.820 529.837, 596.355 516.054 C 602.325 509.974, 607.500 504.999, 607.855 504.998 C 608.210 504.996, 608.353 509.155, 608.173 514.240 C 607.700 527.588, 608.535 531.735, 612.490 535.690 C 619.555 542.755, 623.716 539.252, 635.504 516.310 C 642.677 502.350, 648.339 492.822, 647.573 496 C 644.814 507.441, 645.158 519.540, 648.383 524.461 C 651.944 529.896, 660.253 532.810, 662.943 529.568 C 663.824 528.507, 663.857 527.148, 663.071 524.318 C 660.952 516.687, 661.790 506.857, 665.932 490.771 C 671.285 469.979, 676.610 456.427, 691.372 426.028 C 695.446 417.637, 696.130 411.579, 693.250 409.392 C 690.285 407.141, 688.004 407.768, 686.491 411.250 L 685.078 414.500 685.039 411.735 C 684.965 406.503, 675.793 402.902, 667.931 405.019 C 659.406 407.314, 641.426 427.911, 629.918 448.565 C 620.683 465.139, 617.322 472.705, 614.916 482.341 L 612.709 491.181 604.520 498.341 C 600.017 502.278, 592.095 509.355, 586.916 514.066 C 567.152 532.046, 544.301 546.956, 528.019 552.493 C 524.017 553.855, 520.126 555.480, 519.372 556.107 C 518.617 556.733, 518 556.824, 518 556.310 C 518 554.548, 523.780 538.501, 527.477 530 C 529.510 525.325, 532.664 517.450, 534.486 512.500 C 548.139 475.405, 552.162 465.806, 557.684 457.148 C 564.812 445.971, 588.740 423.040, 608.250 408.687 C 619.330 400.536, 618.311 398.726, 605.369 403.572 C 595.049 407.437, 575.428 419.072, 569.096 425.083 L 566.691 427.365 567.411 424.433 C 567.807 422.820, 570.517 416.100, 573.434 409.500 C 576.351 402.900, 579.997 393.972, 581.535 389.661 C 583.074 385.349, 586.058 378.962, 588.166 375.466 C 590.275 371.970, 592 368.834, 592 368.497 C 592 366.941, 603.437 342.360, 608.748 332.500 C 631.563 290.149, 654.626 257.966, 678.542 235.111 C 688.183 225.897, 694.616 221.827, 701.812 220.388 C 704.782 219.794, 705.107 220.012, 706.615 223.622 C 709.104 229.579, 707.967 236.729, 702.500 249.483 C 689.953 278.759, 667.187 313.726, 639.988 345.500 C 621.479 367.122, 603.708 384.012, 588.850 394.102 C 578.730 400.974, 585.129 402.465, 597.429 396.100 C 609.095 390.063, 616.100 384.574, 634.733 366.872 C 665.649 337.500, 686.711 310.434, 704.101 277.728 C 712.944 261.096, 717.567 249.748, 718.565 242.222 C 719.333 236.430, 716.994 226.205, 713.910 221.873 C 709.127 215.157, 697.643 213.109, 686 216.897 M 237 317.697 C 225.597 319.633, 208.813 326.693, 197.500 334.313 C 150.753 365.800, 112.518 420.768, 87.811 492 C 75.713 526.881, 71.616 548.073, 71.569 576 C 71.547 588.908, 71.933 593.897, 73.341 598.915 C 77.745 614.615, 87.333 627.649, 99.219 634.094 C 105.041 637.251, 106.158 637.500, 114.500 637.500 C 123.277 637.500, 123.746 637.378, 133.444 632.559 C 141.969 628.324, 144.949 626.112, 154.327 617.059 C 169.361 602.548, 186.106 580.267, 200.217 556 C 213.575 533.027, 252.206 455.373, 257.426 441 C 272.139 400.493, 276.558 383.821, 278.047 363.203 C 278.811 352.626, 278.715 348.507, 277.581 343.064 C 275.273 331.999, 270.790 324.522, 264.500 321.249 C 257.640 317.680, 245.975 316.173, 237 317.697 M 250.376 322.491 C 233.541 326.153, 207.361 344.375, 190.500 364.167 C 163.426 395.948, 144.597 426.154, 126.863 466.258 C 117.794 486.765, 107.358 518.973, 102.596 541.147 C 92.615 587.625, 93.856 618.128, 106.148 628.471 C 108.921 630.804, 109.965 631.103, 113.442 630.555 C 123.570 628.959, 145.407 611.947, 158.576 595.394 C 174.704 575.121, 189.330 551.566, 203.527 523 C 242.250 445.085, 257.564 408.239, 265.679 373.469 C 268.012 363.471, 268.470 359.277, 268.462 348 C 268.452 333.150, 267.235 327.144, 263.476 323.385 C 260.795 320.704, 259.117 320.590, 250.376 322.491 M 517.897 362.873 C 511.175 364.299, 497.160 373.661, 488.420 382.566 C 474.741 396.502, 463.520 412.797, 454.034 432.500 C 445.843 449.512, 443.455 455.989, 439.589 471.675 C 433.529 496.263, 432.388 514.717, 435.996 529.769 C 438.406 539.821, 440.852 544.800, 446.269 550.676 C 451.658 556.522, 454.717 558, 461.430 558 C 470.874 558, 479.469 553.603, 485.524 545.673 C 487.987 542.446, 489.819 541, 491.442 541 C 494.353 541, 500 534.840, 500 531.665 C 500 528.817, 498.230 527, 495.455 527 C 492.937 527, 491.005 528.993, 488.184 534.500 C 484.381 541.923, 469.489 551.930, 462.173 551.978 C 452.707 552.041, 448.999 537.855, 452.467 514.847 C 455.440 495.127, 462.385 470.555, 470.514 451 C 474.484 441.449, 489.569 411.581, 493.696 405.101 C 501.934 392.163, 516.479 374.901, 523.400 369.848 C 528.361 366.225, 531.399 366.245, 535.077 369.923 C 539.696 374.543, 539.474 376.052, 530.517 400.848 C 529.057 404.889, 528.111 408.444, 528.413 408.747 C 529.435 409.768, 536.887 400.549, 540.335 394 C 547.998 379.440, 547.289 368.108, 538.485 364.429 C 534.372 362.711, 522.792 361.836, 517.897 362.873 M 880.070 365.750 C 878.461 367.058, 877.553 369.645, 876.472 376 C 874.756 386.092, 871.847 395.273, 867.761 403.500 C 857.367 424.425, 821.832 473.565, 808.012 486.123 C 803.547 490.180, 799.401 493.672, 798.799 493.883 C 797.024 494.503, 798.437 482.390, 801.106 474.103 C 803.113 467.873, 804.606 465.473, 810.748 458.615 C 814.746 454.152, 821.468 445.550, 825.688 439.500 C 829.907 433.450, 834.601 427.053, 836.119 425.284 C 840.399 420.297, 847.935 404.178, 849.193 397.322 C 850.692 389.153, 848.615 382.994, 843.551 380.591 C 837.427 377.685, 833.368 378.779, 826.367 385.222 C 807.011 403.037, 787.360 443.677, 783.960 472.927 C 782.115 488.794, 783.778 497.608, 789.668 503.179 C 795.595 508.785, 800.924 507.492, 811.414 497.905 C 819.719 490.314, 852.659 447.399, 860.081 434.500 C 863.285 428.931, 866.947 424.625, 868.698 424.368 C 871.043 424.024, 873.894 421.023, 879.021 413.500 C 883.366 407.125, 886.282 403.953, 892.764 398.551 L 895.029 396.664 892.829 401.957 C 891.619 404.868, 887.258 412.932, 883.137 419.875 C 879.016 426.819, 873.435 437, 870.734 442.500 C 866.291 451.548, 862.596 457.017, 856.437 463.663 C 855.262 464.930, 854.097 465.763, 853.847 465.514 C 852.936 464.603, 847.037 479.948, 845.541 487.122 C 843.359 497.579, 843.487 498.683, 847.090 500.547 C 851.115 502.628, 852.455 501.999, 855.076 496.799 C 856.267 494.434, 860.954 486.650, 865.491 479.500 C 870.028 472.350, 876.320 462, 879.474 456.500 C 882.628 451, 887.791 442.874, 890.949 438.443 C 894.106 434.012, 897.984 428.162, 899.566 425.443 C 901.148 422.724, 903.415 419.053, 904.603 417.285 C 908.546 411.417, 919.845 387.560, 920.464 383.797 C 920.989 380.604, 920.730 379.869, 918.585 378.464 C 915.055 376.151, 912.959 377.108, 901.628 386.211 C 892.753 393.341, 887.362 396.695, 886.370 395.704 C 886.177 395.510, 887.355 391.560, 888.989 386.926 C 893.499 374.138, 892.780 369.006, 885.989 365.494 C 882.419 363.648, 882.667 363.638, 880.070 365.750 M 836.781 394.225 C 829.596 402.998, 820.734 418.296, 812.290 436.500 C 810.235 440.931, 810.199 441.216, 811.971 439 C 814.575 435.746, 823.023 423.599, 829.706 413.500 C 834.678 405.987, 841.657 391.323, 840.711 390.377 C 840.475 390.142, 838.707 391.873, 836.781 394.225 M 672.305 419.250 C 655.796 436.315, 636.372 469.939, 628.256 495.500 C 624.341 507.829, 622.119 517.195, 623.414 515.914 C 623.739 515.591, 625.050 513.341, 626.326 510.914 C 627.602 508.486, 630.196 503.800, 632.090 500.500 C 633.984 497.200, 638.175 488.875, 641.402 482 C 650.693 462.211, 671.405 426.945, 678.147 419.436 C 679.166 418.300, 680 416.838, 680 416.186 C 680 413.682, 676.244 415.178, 672.305 419.250 M 407.500 446.162 C 399.609 450.507, 384.316 473.110, 375.858 492.929 C 369.684 507.398, 374.504 490.407, 381.542 472.895 C 383.994 466.794, 386 460.775, 386 459.518 C 386 457.016, 379.680 450.668, 376.039 449.512 C 373.546 448.721, 370.431 451.010, 369.410 454.382 C 367.780 459.768, 358.691 481.536, 354.120 491 C 340.098 520.032, 301.375 576, 295.310 576 C 293.409 576, 293.145 572.150, 294.571 565.238 C 296.853 554.182, 298.789 550.412, 307.121 540.798 C 315.752 530.841, 327.499 513.790, 333.877 501.964 C 340.224 490.195, 343 481.873, 343 474.614 C 343 469.096, 342.658 467.930, 340.364 465.636 C 335.181 460.454, 327.402 462.598, 318.277 471.723 C 302.771 487.229, 286.381 520.925, 281.476 547.381 C 279.275 559.254, 279.742 575.931, 282.429 581.368 C 284.577 585.716, 289.180 588.991, 293.151 588.996 C 302.141 589.009, 322.869 563.552, 344.045 526.495 C 349.898 516.252, 349.852 518.538, 343.907 533.427 C 338.458 547.071, 334.688 562.042, 334.585 570.442 C 334.502 577.253, 334.564 577.427, 337.898 579.692 C 339.767 580.961, 341.938 582, 342.723 582 C 343.524 582, 345.309 579.261, 346.794 575.750 C 351.826 563.858, 382.928 503.151, 388.308 494.720 C 390.140 491.849, 392.820 486.913, 394.264 483.750 C 395.708 480.587, 397.115 478, 397.391 478 C 398.115 478, 395.230 487.359, 391.993 495.514 C 389.006 503.037, 385.287 514.911, 382.130 527 C 375.910 550.818, 374.450 564.705, 377.652 569.592 C 379.671 572.673, 386.724 577.642, 390.382 578.560 L 393.071 579.235 390.906 575.565 C 386.513 568.120, 388.412 559.483, 405.984 507 C 421.898 459.471, 422.683 456.155, 419.490 449.980 C 417.048 445.259, 412.038 443.663, 407.500 446.162 M 290.661 462.209 C 289.869 463.469, 288.473 467.953, 287.559 472.173 C 284.593 485.873, 280.269 497.872, 268.165 526 C 265.443 532.325, 261.575 541.325, 259.569 546 C 257.563 550.675, 255.301 555.850, 254.543 557.500 C 253.785 559.150, 252.403 562.413, 251.474 564.750 C 250.544 567.087, 249.332 569, 248.780 569 C 247.533 569, 248.642 562.592, 250.516 558.968 C 251.256 557.538, 254.658 546.550, 258.077 534.551 C 265.060 510.044, 265.083 508.878, 258.653 505.500 L 254.845 503.500 251.172 507.607 C 247.683 511.509, 241.553 523.769, 228.476 553 C 217.381 577.800, 224.688 556.101, 239.127 521.374 C 245.951 504.959, 246.283 502.257, 241.923 498.589 C 237.634 494.980, 234.604 495.197, 232.703 499.250 C 217.084 532.551, 213.185 542.500, 206.354 566.500 C 202.422 580.314, 198 601.555, 198 606.630 C 198 611.333, 200.403 615.640, 204.089 617.546 C 206.456 618.770, 207.462 618.862, 208.558 617.952 C 209.336 617.306, 213.656 609.965, 218.158 601.639 C 230.651 578.532, 229.717 579.567, 229.200 589.408 C 228.939 594.378, 229.242 599.202, 229.948 601.342 C 231.244 605.270, 236.134 610, 238.899 610 C 243.966 610, 293.204 505.296, 299.423 481.298 C 301.836 471.984, 301.513 470.144, 296.510 464.709 L 292.100 459.917 290.661 462.209 M 327.702 482.750 C 319.046 496.131, 317.289 499.086, 314.031 505.735 C 310.223 513.508, 307.023 521, 307.511 521 C 307.730 521, 311.020 516.612, 314.821 511.250 C 324.490 497.608, 337.166 473, 334.524 473 C 334.241 473, 331.172 477.387, 327.702 482.750" stroke="none" fill="#ffffff" fill-rule="evenodd"/>
</svg>